<svg xmlns="http://www.w3.org/2000/svg" width="55" height="69" fill="none"><g clip-path="url(#a)"><path fill="#fff" d="M17.852 58.77c-3.128-2.85-4.04-8.836-2.738-13.174 2.26 2.735 5.39 3.601 8.633 4.09 5.007.755 9.923.473 14.574-1.808.532-.26 1.023-.608 1.605-.96a8.507 8.507 0 0 1 .397 3.832c-.37 3.157-1.947 5.596-4.455 7.445-1.002.74-2.063 1.4-3.099 2.098-3.181 2.143-4.042 4.656-2.847 8.311.029.09.054.179.118.396-1.624-.725-2.81-1.78-3.715-3.167-.955-1.464-1.409-3.083-1.433-4.835-.012-.853-.012-1.713-.127-2.554-.28-2.05-1.246-2.967-3.065-3.02-1.866-.054-3.343 1.096-3.735 2.907-.03.139-.073.276-.116.438l.003.001"/><path fill="url(#b)" d="M17.852 58.77c-3.128-2.85-4.04-8.836-2.738-13.174 2.26 2.735 5.39 3.601 8.633 4.09 5.007.755 9.923.473 14.574-1.808.532-.26 1.023-.608 1.605-.96a8.507 8.507 0 0 1 .397 3.832c-.37 3.157-1.947 5.596-4.455 7.445-1.002.74-2.063 1.4-3.099 2.098-3.181 2.143-4.042 4.656-2.847 8.311.029.09.054.179.118.396-1.624-.725-2.81-1.78-3.715-3.167-.955-1.464-1.409-3.083-1.433-4.835-.012-.853-.012-1.713-.127-2.554-.28-2.05-1.246-2.967-3.065-3.02-1.866-.054-3.343 1.096-3.735 2.907-.03.139-.073.276-.116.438l.003.001"/><path fill="#1E1E1E" d="M0 44.874s9.262-4.497 18.55-4.497l7.002-21.598c.263-1.045 1.028-1.755 1.892-1.755.864 0 1.63.71 1.892 1.755l7.003 21.598c11 0 18.55 4.497 18.55 4.497S39.156 2.162 39.126 2.076C38.674.813 37.912 0 36.884 0H18.006c-1.028 0-1.76.813-2.241 2.076C15.73 2.16 0 44.874 0 44.874"/></g><defs><linearGradient id="b" x1="14.54" x2="44.703" y1="69" y2="54.699" gradientUnits="userSpaceOnUse"><stop stop-color="#D83333"/><stop offset="1" stop-color="#F041FF"/></linearGradient><clipPath id="a"><path fill="#fff" d="M0 0h55v69H0z"/></clipPath></defs></svg>