<svg xmlns="http://www.w3.org/2000/svg" width="500" height="554" fill="none"><path fill="#1E1E1E" d="m194.063 404.166-4.59 12.674-1.693-.613 4.59-12.674zm-.476 8.187-.559 1.542-6.093-2.207.559-1.542zM175.388 396.118l-2.436 4.975c-.316.647-.374 1.28-.172 1.899s.626 1.087 1.272 1.404c.431.211.861.304 1.29.276a2.323 2.323 0 0 0 1.177-.402c.355-.241.639-.578.85-1.009l.479.704c-.316.646-.741 1.151-1.275 1.512a3.443 3.443 0 0 1-1.783.596c-.661.046-1.315-.089-1.961-.406-.647-.317-1.145-.74-1.495-1.269a3.45 3.45 0 0 1-.596-1.785c-.035-.656.112-1.319.44-1.99l2.594-5.299zm6.033 2.961-6.28 12.825-1.615-.793 6.279-12.825zM162.076 388.232c.8.507 1.406 1.144 1.82 1.912.407.779.597 1.602.57 2.469-.027.867-.293 1.701-.798 2.501-.498.79-1.127 1.386-1.886 1.788a4.826 4.826 0 0 1-2.426.546c-.865-.028-1.687-.288-2.464-.781-.743-.471-1.289-1.054-1.638-1.749a4.132 4.132 0 0 1-.449-2.25c.051-.805.315-1.585.792-2.34a5.65 5.65 0 0 1 .251-.362c.09-.116.205-.249.346-.396l6.773 4.295-.801 1.268-5.962-3.781.867-.137c-.342.541-.535 1.059-.578 1.552-.051.505.035.969.256 1.394.213.435.568.81 1.063 1.124.518.329 1.046.505 1.582.53a2.728 2.728 0 0 0 1.51-.369c.47-.27.88-.682 1.229-1.234.355-.564.556-1.131.601-1.703a2.901 2.901 0 0 0-.343-1.591c-.275-.49-.682-.906-1.222-1.249a3.719 3.719 0 0 0-1.383-.545 3.019 3.019 0 0 0-1.428.089l-.35-1.619a4.406 4.406 0 0 1 2.07-.132c.702.113 1.368.37 1.998.77M134.101 367.036c.378.376.69.78.937 1.214.228.433.395.881.5 1.343.096.472.122.94.077 1.403l-1.637.007a3.426 3.426 0 0 0-.177-1.529 3.727 3.727 0 0 0-.867-1.285c-.397-.395-.77-.634-1.118-.718-.358-.074-.659.013-.903.259-.243.247-.341.526-.292.838.03.311.139.646.329 1.004.181.368.385.749.612 1.145.209.396.381.801.514 1.216.134.415.169.835.105 1.26-.073.416-.312.828-.714 1.236-.403.408-.849.661-1.338.757a2.684 2.684 0 0 1-1.511-.12c-.518-.196-1.028-.543-1.529-1.042-.53-.526-.904-1.086-1.123-1.68a3.416 3.416 0 0 1-.206-1.841l1.637-.008c-.054.435-.005.86.147 1.275.143.405.39.782.739 1.13.369.366.718.582 1.048.647a.83.83 0 0 0 .804-.245c.224-.228.313-.488.264-.78-.048-.293-.167-.618-.357-.976-.2-.368-.404-.749-.613-1.145a5.746 5.746 0 0 1-.513-1.216 2.666 2.666 0 0 1-.063-1.275c.074-.435.316-.861.728-1.279.628-.635 1.351-.913 2.171-.831.809.072 1.592.483 2.349 1.236M119.82 351.144l-.977 6.524-6.362-.491-1.37-1.696 7.048.577-.856.595 1.059-7.313zm3.821 4.729-11.07 9.022-1.131-1.401 11.07-9.021zM111.508 339.036l-5.809 8.681-1.081-1.683 4.637-6.657.346.538-8.032 1.374-1.081-1.683 10.436-1.479zm4.742.165-6.329.769 1.003-1.843 4.245-.609zM95.124 329.492l-2.678-.038-.429-.5c.16-.007.307.017.438.07.125.042.22.128.285.259.125.251.14.534.045.851a1.24 1.24 0 0 1-.634.701 1.342 1.342 0 0 1-1.027.093 1.305 1.305 0 0 1-.785-.679c-.155-.31-.173-.645-.054-1.004.12-.359.346-.622.679-.79.13-.066.306-.118.526-.154.203-.042.492-.061.867-.056l2.803.064-.036 1.183M96.104 307.541c.185.501.299.999.34 1.496.025.49-.012.966-.11 1.43-.111.469-.284.904-.52 1.306l-1.488-.68c.28-.475.44-.963.482-1.463a3.736 3.736 0 0 0-.246-1.531c-.194-.525-.432-.899-.713-1.121-.294-.217-.603-.265-.928-.143-.324.122-.53.334-.617.637-.104.296-.145.646-.123 1.051.01.409.034.841.074 1.296.024.447.009.887-.044 1.32a2.733 2.733 0 0 1-.435 1.188c-.241.347-.63.622-1.167.823-.537.201-1.047.243-1.531.126a2.684 2.684 0 0 1-1.32-.743c-.388-.396-.705-.925-.95-1.588-.26-.7-.364-1.366-.313-1.998.034-.639.23-1.225.587-1.758l1.488.681a2.682 2.682 0 0 0-.402 1.219c-.04.428.025.873.196 1.336.18.488.406.83.678 1.027a.827.827 0 0 0 .832.115c.3-.112.489-.311.568-.597.079-.286.108-.632.086-1.037-.027-.417-.052-.849-.075-1.296a5.755 5.755 0 0 1 .045-1.32 2.67 2.67 0 0 1 .48-1.184c.248-.364.648-.649 1.197-.855.836-.314 1.609-.262 2.318.155.704.405 1.241 1.108 1.611 2.108M87.304 272.818l-13.344 1.908-.248-1.783 13.344-1.908zm-7.459 3.43-1.623.232-.892-6.418 1.623-.232.892 6.418M85.811 252.838l-5.537.184c-.72.024-1.306.271-1.758.739-.453.469-.669 1.063-.647 1.783.014.48.134.903.358 1.269.225.366.526.649.906.85.38.201.81.293 1.289.277l-.397.754c-.72.024-1.365-.115-1.934-.416a3.43 3.43 0 0 1-1.36-1.295c-.35-.562-.536-1.203-.557-1.923-.022-.72.119-1.358.422-1.915a3.466 3.466 0 0 1 1.3-1.364c.563-.339 1.218-.521 1.964-.546l5.897-.197.054 1.8m.202 6.717-14.272.476-.054-1.8 14.272-.476zM86.568 237.239c-.074.944-.353 1.778-.837 2.504a4.922 4.922 0 0 1-1.915 1.66c-.78.383-1.64.538-2.585.467-.93-.07-1.751-.346-2.463-.828a4.827 4.827 0 0 1-1.618-1.887c-.38-.778-.535-1.625-.463-2.542.068-.878.328-1.634.778-2.268a4.132 4.132 0 0 1 1.778-1.45c.735-.333 1.548-.465 2.439-.398.133.01.278.028.437.053.145.025.316.064.512.119l-.624 7.996-1.495-.113.549-7.039.527.702c-.638-.048-1.185.024-1.642.217-.47.192-.84.485-1.112.879-.284.393-.45.882-.495 1.467-.048.611.043 1.159.273 1.645.23.485.574.872 1.032 1.161.46.289 1.015.458 1.666.507.665.05 1.26-.039 1.786-.266a2.904 2.904 0 0 0 1.245-1.05c.305-.471.482-1.026.532-1.664a3.698 3.698 0 0 0-.166-1.477c-.15-.466-.4-.873-.747-1.22l1.267-1.067a4.393 4.393 0 0 1 1.085 1.767c.229.672.314 1.38.256 2.125M92.682 203.458l-13.671-4.125.52-1.723 13.672 4.125-.521 1.723M98.662 186.663l-8.744-3.716.704-1.656 8.743 3.716-.703 1.656m-10.14-5.287c-.13.307-.336.517-.616.629a1.174 1.174 0 0 1-.898-.034 1.084 1.084 0 0 1-.61-.607 1.077 1.077 0 0 1 .007-.888c.13-.307.341-.514.633-.622.28-.113.567-.107.861.019.307.13.523.338.648.623.113.28.105.573-.026.88M103.922 175.054l-8.288-4.644.877-1.571 8.288 4.643zm3.129-5.606-5.007-2.805c-.617-.346-1.207-.424-1.77-.236-.569.171-1.012.541-1.33 1.112a2.45 2.45 0 0 0-.332 1.167c-.006.394.085.766.271 1.115.187.349.484.638.891.866l-.674.47c-.629-.352-1.1-.792-1.416-1.321a3.326 3.326 0 0 1-.448-1.741 3.696 3.696 0 0 1 .495-1.831c.325-.582.746-1.035 1.262-1.357a3.175 3.175 0 0 1 1.705-.511c.622-.019 1.252.151 1.892.509l5.339 2.992zm3.13-5.605-5.008-2.806c-.616-.345-1.206-.424-1.769-.235-.569.17-1.009.535-1.321 1.094a2.568 2.568 0 0 0-.341 1.184c-.006.394.084.766.271 1.115s.484.638.891.866l-.811.715c-.621-.394-1.073-.869-1.358-1.426a3.738 3.738 0 0 1-.409-1.811 3.779 3.779 0 0 1 .496-1.831c.338-.605.768-1.075 1.29-1.409a3.32 3.32 0 0 1 1.716-.529c.628-.03 1.267.137 1.919.502l5.321 2.982zM115.823 155.473l-7.735-5.516 1.042-1.468 7.735 5.516zm-8.761-7.353c-.193.272-.438.433-.735.483a1.181 1.181 0 0 1-.869-.227 1.09 1.09 0 0 1-.466-.726 1.08 1.08 0 0 1 .198-.866c.193-.272.443-.429.751-.471.297-.05.576.018.837.203.271.194.437.444.498.749.051.298-.021.583-.214.855M127.63 140.511l-10.061-8.972 1.194-1.347 10.061 8.972zm-7.418-3.48-1.224-1.091 4.297-4.851 1.224 1.092zM151.893 118.085l-8.6-5.489 1.52-1.107 6.53 4.398-.485.354-2.15-7.59.841-.613 6.513 4.41-.485.353-2.133-7.601 1.52-1.108 2.538 9.905-.857.625-6.417-4.208.533-.389 1.972 7.447zM170.824 105.772l-2.738-4.817c-.355-.625-.845-1.028-1.469-1.208-.623-.18-1.247-.09-1.872.268a2.534 2.534 0 0 0-.951.916 2.338 2.338 0 0 0-.329 1.203c0 .431.118.855.355 1.273l-.849.003c-.355-.626-.533-1.262-.532-1.908.001-.646.17-1.252.509-1.815.333-.576.811-1.043 1.435-1.402.625-.358 1.253-.535 1.885-.529.644 0 1.246.168 1.807.507.56.34 1.025.834 1.394 1.483l2.916 5.129zm-5.827 3.348-7.056-12.415 1.561-.897 7.056 12.415zM184.888 99.026c-.867.38-1.733.527-2.598.44a4.872 4.872 0 0 1-2.356-.91c-.699-.509-1.237-1.197-1.613-2.066-.371-.857-.509-1.713-.415-2.57a4.874 4.874 0 0 1 .913-2.322c.509-.704 1.185-1.24 2.027-1.61.806-.353 1.594-.48 2.363-.38.782.093 1.484.39 2.107.888.634.494 1.129 1.15 1.484 1.97a4.823 4.823 0 0 1 .29.921l-7.345 3.22-.596-1.376 6.466-2.835-.374.797c-.255-.587-.573-1.037-.955-1.35a2.408 2.408 0 0 0-1.292-.569c-.48-.066-.988.018-1.525.254-.562.246-1.003.585-1.325 1.018-.321.432-.503.919-.544 1.461-.041.542.068 1.113.327 1.713.265.612.62 1.097 1.066 1.454.44.346.941.548 1.504.607.558.047 1.13-.058 1.716-.315a3.708 3.708 0 0 0 1.226-.844c.341-.353.584-.765.729-1.236l1.531.617a4.453 4.453 0 0 1-1.054 1.794 5.288 5.288 0 0 1-1.757 1.229M203.576 91.922l-1.638-5.292c-.213-.688-.605-1.186-1.175-1.496-.571-.31-1.199-.357-1.886-.14a2.54 2.54 0 0 0-1.126.69 2.35 2.35 0 0 0-.58 1.104c-.093.42-.068.86.074 1.319l-.83-.18c-.213-.687-.25-1.347-.11-1.978a3.46 3.46 0 0 1 .888-1.663c.448-.49 1.015-.844 1.702-1.06.687-.216 1.344-.234 1.972-.054a3.825 3.825 0 0 1 1.679.96 3.7 3.7 0 0 1 1.002 1.614l1.745 5.636-1.717.54m-6.41 2.017-2.809-9.075 1.717-.54 2.809 9.075-1.717.54M237.992 85.709c-.93.082-1.792-.064-2.586-.435a4.928 4.928 0 0 1-1.922-1.618 5.042 5.042 0 0 1-.849-2.455c-.079-.93.063-1.786.426-2.567a4.816 4.816 0 0 1 1.625-1.91c.72-.505 1.545-.798 2.475-.88.73-.064 1.42.016 2.067.24.647.21 1.218.555 1.713 1.034l-1.094 1.3a2.737 2.737 0 0 0-1.142-.682 3.306 3.306 0 0 0-1.398-.158c-.598.052-1.117.238-1.559.558a2.88 2.88 0 0 0-1.001 1.213c-.226.501-.312 1.064-.259 1.689.052.624.231 1.164.537 1.619.306.455.703.802 1.192 1.04.488.238 1.031.33 1.629.278a3.54 3.54 0 0 0 1.353-.38 3.135 3.135 0 0 0 1.028-.893l1.277 1.092a4.53 4.53 0 0 1-1.515 1.318 4.953 4.953 0 0 1-1.997.597M250.862 86.002l.227-9.497 1.8.038-.227 9.497-1.8-.038m1.929-5.38-.672-.315c.029-1.213.332-2.173.909-2.881.577-.708 1.392-1.051 2.445-1.029.48.01.911.106 1.294.287.382.169.736.45 1.06.843l-1.209 1.195a1.792 1.792 0 0 0-.649-.474 2.306 2.306 0 0 0-.836-.158c-.667-.014-1.219.188-1.655.606-.437.417-.666 1.06-.687 1.926M271.692 87.617c-.939-.123-1.757-.445-2.455-.966a4.904 4.904 0 0 1-1.551-1.998c-.338-.797-.445-1.665-.32-2.603.123-.925.444-1.73.966-2.415a4.854 4.854 0 0 1 1.976-1.517c.798-.34 1.654-.45 2.566-.33.872.113 1.613.411 2.221.894a4.104 4.104 0 0 1 1.349 1.85c.291.75.377 1.569.26 2.455a5.678 5.678 0 0 1-.078.433 4.892 4.892 0 0 1-.148.505l-7.952-1.038.197-1.487 7.001.914-.731.49c.084-.635.043-1.185-.124-1.65a2.41 2.41 0 0 0-.816-1.156c-.376-.304-.855-.495-1.437-.57-.608-.08-1.161-.017-1.659.186a2.737 2.737 0 0 0-1.218.97c-.314.444-.514.99-.6 1.637-.088.66-.033 1.26.165 1.796.2.524.526.957.978 1.298.454.328.999.534 1.633.617.529.069 1.024.04 1.485-.089a3.028 3.028 0 0 0 1.26-.683l.995 1.32c-.519.47-1.128.801-1.826.992a5.276 5.276 0 0 1-2.137.145M289.453 90.975a4.473 4.473 0 0 1-2.141-1.18 4.792 4.792 0 0 1-1.21-2.126c-.211-.82-.206-1.683.015-2.59.222-.906.616-1.675 1.181-2.306a4.858 4.858 0 0 1 2.036-1.337c.791-.26 1.614-.286 2.469-.078.7.17 1.285.47 1.757.9.487.42.836.931 1.046 1.531.214.587.257 1.222.132 1.905l-.679 2.778a3.67 3.67 0 0 1-.996 1.631c-.45.44-.99.74-1.62.903-.614.153-1.277.142-1.99-.031m.695-1.58c.868.21 1.639.09 2.313-.364.676-.467 1.127-1.16 1.352-2.08.155-.634.166-1.215.034-1.74a2.612 2.612 0 0 0-.74-1.354c-.374-.38-.852-.64-1.435-.782-.583-.141-1.135-.132-1.655.03a3.022 3.022 0 0 0-1.324.872c-.36.406-.615.914-.764 1.522-.152.622-.163 1.203-.034 1.742.145.53.411.985.798 1.367.387.382.872.644 1.455.786m2.423 2.133.608-2.487.881-2.174.215-2.314.551-2.254 1.769.43-2.255 9.229-1.769-.43M305.937 95.834l4.59-12.674 1.693.613-4.59 12.674-1.693-.613m.476-8.187.559-1.542 6.093 2.207-.559 1.542-6.093-2.207M321.131 102.222l4.177-8.532 1.616.793-4.177 8.532zm5.821-9.842c-.3-.147-.498-.363-.596-.649a1.182 1.182 0 0 1 .082-.895c.141-.288.354-.48.639-.578.291-.11.587-.09.886.056.299.147.495.37.586.667.098.286.077.572-.064.86-.147.299-.365.503-.657.613-.285.098-.577.073-.876-.074M337.952 111.652l1.389-10.368 1.689 1.071-1.325 8.656-.98-.621 7.254-4.897 1.622 1.028-8.754 5.698zM351.888 121.935c-.74-.591-1.274-1.29-1.603-2.099a4.921 4.921 0 0 1-.299-2.517c.12-.86.474-1.66 1.063-2.401.58-.731 1.269-1.256 2.067-1.575a4.83 4.83 0 0 1 2.47-.28c.857.122 1.645.469 2.364 1.043.687.55 1.167 1.189 1.439 1.918.283.738.35 1.5.203 2.286-.138.795-.484 1.542-1.039 2.242a4.78 4.78 0 0 1-.675.689l-6.267-5.004.933-1.175 5.516 4.405-.876.043c.398-.501.645-.995.741-1.481a2.428 2.428 0 0 0-.103-1.414c-.166-.456-.477-.867-.936-1.233-.479-.383-.984-.616-1.514-.698a2.724 2.724 0 0 0-1.541.203c-.496.218-.947.583-1.354 1.094-.414.523-.675 1.065-.781 1.628a2.902 2.902 0 0 0 .169 1.62c.22.517.58.975 1.08 1.375.416.332.855.563 1.315.691a3 3 0 0 0 1.428.066l.173 1.648a4.386 4.386 0 0 1-2.071-.093 5.25 5.25 0 0 1-1.902-.981M373.736 141.21l7.364-6.002 1.131 1.401-7.364 6.001zm4.034 4.994 4.45-3.627c.548-.446.838-.967.872-1.562.052-.593-.127-1.143-.537-1.651a2.437 2.437 0 0 0-.959-.741 2.228 2.228 0 0 0-1.133-.161c-.392.045-.769.214-1.131.509l-.186-.803c.558-.455 1.14-.731 1.746-.83a3.302 3.302 0 0 1 1.779.228 3.696 3.696 0 0 1 1.513 1.141c.419.518.682 1.078.79 1.678.116.61.064 1.203-.157 1.779-.212.586-.603 1.11-1.171 1.574l-4.744 3.866zm4.035 4.993 4.45-3.626c.547-.446.838-.967.872-1.562.052-.593-.123-1.138-.525-1.636a2.576 2.576 0 0 0-.971-.757 2.24 2.24 0 0 0-1.133-.16c-.392.044-.77.214-1.131.509l-.362-1.021c.593-.432 1.201-.678 1.822-.736a3.7 3.7 0 0 1 1.828.29 3.76 3.76 0 0 1 1.513 1.14c.436.54.712 1.115.828 1.725a3.348 3.348 0 0 1-.144 1.795c-.204.596-.596 1.13-1.174 1.601l-4.729 3.854zM387.404 159.572l7.969-5.172.972 1.515-7.969 5.171zm10.049-5.449c-.18-.28-.239-.568-.175-.864.075-.303.252-.545.532-.726.268-.174.549-.23.844-.166.305.056.548.224.728.504.18.281.233.572.158.875-.063.296-.23.531-.498.705-.28.182-.572.244-.878.188-.294-.063-.531-.235-.711-.516M397.791 178.117l4.945-2.496c.643-.325 1.072-.795 1.286-1.411.214-.616.161-1.246-.161-1.89a2.512 2.512 0 0 0-.856-1.001 2.305 2.305 0 0 0-1.179-.391 2.523 2.523 0 0 0-1.285.29l.044-.852c.643-.324 1.286-.469 1.929-.435a3.42 3.42 0 0 1 1.776.604c.554.363.991.867 1.312 1.511.322.644.444 1.292.366 1.944a3.88 3.88 0 0 1-.678 1.821 3.733 3.733 0 0 1-1.429 1.258l-5.267 2.659zm-3-6.014 8.482-4.28.803 1.611-8.481 4.28zM403.758 192.969c-.305-.825-.378-1.638-.219-2.438a4.87 4.87 0 0 1 1.09-2.182c.56-.638 1.277-1.121 2.151-1.449.874-.328 1.73-.435 2.568-.322.842.125 1.59.435 2.242.931.653.496 1.132 1.156 1.437 1.982.245.662.324 1.316.235 1.962a3.557 3.557 0 0 1-.682 1.73c-.362.52-.86.921-1.495 1.202l-2.678 1.005a3.671 3.671 0 0 1-1.905.096 3.672 3.672 0 0 1-1.659-.852c-.473-.435-.835-.99-1.085-1.665m1.696-.316c.208.563.52 1.001.934 1.316a2.9 2.9 0 0 0 1.435.593c.55.065 1.118-.013 1.705-.234.612-.229 1.096-.553 1.453-.972.361-.406.595-.871.699-1.395.11-.511.061-1.048-.148-1.611-.208-.562-.522-1.007-.941-1.334a2.998 2.998 0 0 0-1.461-.605c-.537-.069-1.099.007-1.686.227-.599.225-1.086.543-1.459.954a3.076 3.076 0 0 0-.693 1.413c-.1.536-.046 1.085.162 1.648m.226 4.935-.631-1.707 2.397-.899 2.29-.497 2.035-1.127 6.647-2.494.632 1.707zM408.732 209.331a5.669 5.669 0 0 1-.176-1.524c.028-.489.116-.959.264-1.41.161-.454.38-.868.657-1.241l1.407.837a3.433 3.433 0 0 0-.638 1.402 3.752 3.752 0 0 0 .08 1.549c.136.543.332.94.588 1.191.268.248.571.329.906.243.336-.086.564-.275.683-.567.135-.283.214-.626.236-1.031.035-.408.057-.84.066-1.297.025-.447.087-.882.187-1.307.1-.425.286-.803.56-1.134.278-.319.694-.549 1.25-.692.555-.142 1.067-.128 1.536.041.481.166.892.46 1.232.882.343.435.6.995.773 1.681.182.724.213 1.397.095 2.019a3.433 3.433 0 0 1-.773 1.684l-1.407-.837a2.69 2.69 0 0 0 .532-1.168 3.021 3.021 0 0 0-.051-1.35c-.126-.504-.314-.869-.563-1.094a.83.83 0 0 0-.815-.205c-.31.08-.519.257-.629.533-.109.276-.175.616-.197 1.021-.019.417-.041.85-.066 1.296-.012.444-.075.88-.187 1.308a2.676 2.676 0 0 1-.604 1.125c-.287.335-.715.575-1.283.72-.866.222-1.628.087-2.288-.405-.657-.479-1.115-1.236-1.375-2.27M413.596 246.483c-.029-.933.166-1.786.583-2.561a4.965 4.965 0 0 1 1.725-1.838 5.074 5.074 0 0 1 2.5-.724c.933-.031 1.778.154 2.538.556a4.776 4.776 0 0 1 1.812 1.72c.463.745.708 1.584.736 2.517a4.954 4.954 0 0 1-.358 2.053 4.455 4.455 0 0 1-1.131 1.659l-1.236-1.16a2.76 2.76 0 0 0 .748-1.105c.174-.42.253-.882.238-1.389-.018-.6-.174-1.128-.468-1.585a2.846 2.846 0 0 0-1.152-1.062c-.488-.251-1.045-.366-1.671-.345-.627.021-1.176.173-1.647.455a3.03 3.03 0 0 0-1.107 1.138c-.266.476-.389 1.013-.371 1.613.015.507.115.963.301 1.371.199.42.477.778.832 1.073l-1.163 1.219a4.474 4.474 0 0 1-1.228-1.58 4.927 4.927 0 0 1-.481-2.025M413.083 262.263c.073-.931.358-1.751.854-2.463a4.968 4.968 0 0 1 1.914-1.64c.792-.382 1.653-.537 2.584-.467.917.069 1.725.351 2.422.845a4.936 4.936 0 0 1 1.636 1.909c.381.777.535 1.631.462 2.562-.071.917-.356 1.731-.852 2.442a4.772 4.772 0 0 1-1.895 1.662c-.779.383-1.627.539-2.545.47-.93-.07-1.758-.353-2.481-.849a4.893 4.893 0 0 1-1.635-1.929c-.381-.777-.535-1.625-.464-2.542m1.735.131c-.046.598.052 1.14.295 1.627a3 3 0 0 0 1.051 1.182c.471.303 1.019.479 1.644.526.612.046 1.168-.052 1.668-.295.499-.23.9-.568 1.202-1.013.315-.431.495-.945.542-1.543.047-.598-.051-1.141-.294-1.627a2.862 2.862 0 0 0-1.032-1.181c-.457-.302-.992-.476-1.604-.522-.625-.048-1.193.043-1.706.272a3.008 3.008 0 0 0-1.222 1.011c-.316.444-.497.965-.544 1.563M412.028 274.063l9.339 1.74-.332 1.769-9.339-1.74zm-1.186 6.31 5.643 1.051c.695.129 1.28.015 1.754-.345.485-.343.788-.836.909-1.478a2.443 2.443 0 0 0-.058-1.211 2.242 2.242 0 0 0-.611-.969c-.289-.27-.662-.448-1.121-.534l.491-.661c.707.132 1.295.397 1.763.796.465.412.791.914.979 1.505.2.593.238 1.224.112 1.893-.123.655-.378 1.218-.765 1.688a3.186 3.186 0 0 1-1.455 1.031c-.583.217-1.236.258-1.957.124l-6.016-1.121zm-1.185 6.309 5.643 1.052c.694.129 1.279.014 1.754-.345.485-.344.786-.83.904-1.459a2.558 2.558 0 0 0-.053-1.231 2.256 2.256 0 0 0-.612-.968c-.288-.271-.662-.449-1.12-.534l.542-.937c.713.174 1.294.479 1.741.915.458.451.779.979.964 1.583.198.606.236 1.237.112 1.893-.128.681-.386 1.263-.776 1.747a3.312 3.312 0 0 1-1.459 1.05c-.585.23-1.245.277-1.979.14l-5.997-1.117zM406.386 297.55c.274-.907.725-1.662 1.354-2.266a4.917 4.917 0 0 1 2.225-1.209c.842-.205 1.716-.171 2.623.102.893.27 1.636.717 2.227 1.341a4.853 4.853 0 0 1 1.176 2.193c.205.842.174 1.703-.092 2.583-.255.843-.67 1.525-1.246 2.048a4.122 4.122 0 0 1-2.046 1.033c-.789.166-1.61.12-2.466-.138a5.605 5.605 0 0 1-.415-.147 4.944 4.944 0 0 1-.475-.226l2.321-7.677 1.436.433-2.043 6.758-.364-.799c.613.185 1.162.232 1.649.142.5-.086.924-.292 1.274-.618.362-.323.628-.765.797-1.326.178-.587.206-1.143.086-1.667a2.724 2.724 0 0 0-.76-1.357c-.386-.381-.892-.666-1.517-.855-.638-.192-1.239-.234-1.801-.125a2.9 2.9 0 0 0-1.44.756c-.398.395-.69.899-.875 1.512a3.692 3.692 0 0 0-.154 1.478c.047.488.203.939.468 1.353l-1.465.77a4.401 4.401 0 0 1-.682-1.961 5.27 5.27 0 0 1 .205-2.131M392.614 330.339l11.76 6.589-.878 1.572-11.76-6.589zm7.998 1.799 1.43.802-3.159 5.658-1.43-.802zM383.121 345.002c.54-.761 1.205-1.319 1.996-1.672a4.923 4.923 0 0 1 2.479-.418c.873.082 1.69.394 2.45.936.749.535 1.294 1.194 1.637 1.979.353.792.493 1.62.419 2.485-.074.864-.381 1.677-.921 2.438-.532.751-1.194 1.303-1.984 1.656a4.733 4.733 0 0 1-2.474.446c-.863-.074-1.669-.379-2.418-.913-.759-.542-1.321-1.213-1.686-2.013a4.923 4.923 0 0 1-.407-2.502c.074-.864.377-1.672.909-2.422m1.417 1.01c-.348.49-.542 1.006-.584 1.549a3.027 3.027 0 0 0 .291 1.559c.248.504.626.938 1.137 1.302.499.356 1.025.559 1.578.61a2.855 2.855 0 0 0 1.548-.247c.491-.207.909-.556 1.256-1.045a3.047 3.047 0 0 0 .584-1.549 2.87 2.87 0 0 0-.275-1.547c-.236-.496-.604-.923-1.104-1.279-.51-.364-1.043-.58-1.599-.649a3.004 3.004 0 0 0-1.565.235c-.498.218-.92.572-1.267 1.061M368.628 356.848c.645-.729 1.354-1.258 2.127-1.587a4.53 4.53 0 0 1 2.328-.335l.111 1.653a3.806 3.806 0 0 0-1.751.288c-.552.221-1.072.607-1.558 1.156-.646.728-.96 1.475-.943 2.24-.002.767.32 1.438.967 2.015l1.761 1.571 1.385 1.664 1.795 1.171 1.866 1.664-1.194 1.347-6.807-6.07c-.676-.603-1.127-1.291-1.351-2.063-.234-.762-.243-1.556-.028-2.382.207-.816.637-1.594 1.292-2.332m3.239 2.888c.575-.648 1.246-1.095 2.014-1.338a4.49 4.49 0 0 1 2.343-.081c.813.188 1.557.584 2.234 1.188.677.603 1.146 1.29 1.408 2.06a4.54 4.54 0 0 1 .195 2.344c-.141.803-.499 1.528-1.074 2.177-.495.559-1.042.955-1.642 1.189a3.38 3.38 0 0 1-1.827.193c-.618-.087-1.199-.355-1.744-.806l-1.881-1.677c-.491-.491-.821-1.044-.989-1.659a3.463 3.463 0 0 1-.009-1.83c.162-.624.486-1.211.972-1.76m1.03 1.401c-.389.44-.635.908-.738 1.406a2.588 2.588 0 0 0 .102 1.484c.189.49.512.939.97 1.348.458.408.94.668 1.446.78a2.57 2.57 0 0 0 1.483-.044c.49-.152.935-.453 1.333-.902.397-.449.647-.932.749-1.449a2.824 2.824 0 0 0-.09-1.527c-.17-.491-.479-.937-.927-1.336-.448-.399-.93-.66-1.446-.781a2.937 2.937 0 0 0-1.538.077c-.498.18-.946.495-1.344.944M359.325 371.893c.701-.637 1.475-1.053 2.323-1.247a4.865 4.865 0 0 1 2.524.111c.826.258 1.556.739 2.19 1.442.625.693 1.03 1.461 1.214 2.302.175.85.133 1.681-.123 2.491-.258.829-.728 1.553-1.408 2.172-.651.592-1.358.963-2.119 1.115a4.105 4.105 0 0 1-2.281-.17c-.759-.265-1.438-.729-2.036-1.392a5.209 5.209 0 0 1-.28-.34 5.125 5.125 0 0 1-.289-.44l5.934-5.395 1.005 1.114-5.224 4.749.1-.875c.428.475.874.8 1.336.974a2.4 2.4 0 0 0 1.407.127c.476-.09.93-.332 1.365-.727.453-.413.764-.875.93-1.387a2.744 2.744 0 0 0 .049-1.558c-.134-.527-.419-1.033-.857-1.518-.446-.495-.938-.841-1.475-1.038a2.872 2.872 0 0 0-1.62-.094c-.544.133-1.052.416-1.526.846a3.72 3.72 0 0 0-.893 1.19c-.21.444-.309.912-.296 1.404l-1.648-.096a4.431 4.431 0 0 1 .426-2.036 5.292 5.292 0 0 1 1.272-1.724M345.662 383.286l7.891 10.929-1.455 1.06-7.89-10.929zm6.492 4.994.96 1.33-5.237 3.816-.96-1.329zM328.799 394.092l2.738 4.816c.355.626.845 1.029 1.469 1.209.624.18 1.247.09 1.872-.268a2.55 2.55 0 0 0 .951-.916c.219-.372.328-.773.329-1.204 0-.431-.118-.855-.355-1.272l.849-.004c.356.626.533 1.262.532 1.909 0 .646-.17 1.251-.509 1.815-.333.575-.811 1.042-1.435 1.401-.625.359-1.253.535-1.885.529a3.422 3.422 0 0 1-1.807-.507c-.56-.339-1.025-.833-1.394-1.482l-2.915-5.13zm5.827-3.348 7.056 12.415-1.561.896-7.056-12.415zM314.735 400.838c.867-.381 1.733-.527 2.598-.441a4.873 4.873 0 0 1 2.356.911c.699.508 1.237 1.197 1.613 2.066.371.856.509 1.713.415 2.569a4.874 4.874 0 0 1-.913 2.322c-.509.704-1.185 1.241-2.027 1.61-.806.353-1.594.48-2.363.381a4.09 4.09 0 0 1-2.107-.889c-.634-.493-1.129-1.15-1.484-1.97a5.533 5.533 0 0 1-.157-.411c-.046-.14-.09-.31-.133-.51l7.345-3.22.596 1.376-6.466 2.835.374-.797c.254.587.573 1.037.955 1.35.388.325.819.515 1.292.569.48.067.988-.018 1.525-.254.562-.246 1.003-.585 1.325-1.017a2.75 2.75 0 0 0 .544-1.462c.041-.542-.068-1.113-.327-1.712-.265-.612-.62-1.097-1.066-1.455a2.867 2.867 0 0 0-1.504-.607c-.558-.046-1.13.059-1.716.316a3.705 3.705 0 0 0-1.226.843 3.047 3.047 0 0 0-.729 1.237l-1.531-.617a4.454 4.454 0 0 1 1.054-1.795 5.279 5.279 0 0 1 1.757-1.228M301.227 406.311l2.81 9.075-1.717.541-2.81-9.075zm-.114 5.718.738.083c.358 1.159.377 2.166.056 3.022-.321.856-.984 1.442-1.989 1.758a3.146 3.146 0 0 1-1.317.142c-.416-.037-.84-.19-1.273-.459l.765-1.52c.254.144.509.224.766.241.256.017.537-.022.842-.118.636-.2 1.095-.568 1.375-1.104.281-.535.294-1.217.037-2.045M248.293 553.707a.999.999 0 0 0 1.414 0l6.364-6.364a.999.999 0 1 0-1.414-1.414L249 551.586l-5.657-5.657a.999.999 0 1 0-1.414 1.414zM248 244v309h2V244z"/><circle cx="249.276" cy="247.276" r="8.776" fill="#1E1E1E" stroke="#1E1E1E"/></svg>