<svg xmlns="http://www.w3.org/2000/svg" width="46" height="69" fill="none"><g clip-path="url(#a)"><path fill="#1ABCFE" d="M23 34.5c0-6.286 5.096-11.383 11.383-11.383 6.286 0 11.383 5.097 11.383 11.383 0 6.287-5.097 11.383-11.383 11.383C28.096 45.883 23 40.787 23 34.5"/><path fill="#0ACF83" d="M.234 57.266c0-6.287 5.096-11.383 11.383-11.383H23v11.383c0 6.286-5.096 11.383-11.383 11.383C5.33 68.649.234 63.552.234 57.266Z"/><path fill="#FF7262" d="M23 .351v22.766h11.383c6.287 0 11.383-5.096 11.383-11.383C45.766 5.448 40.67.351 34.383.351H23Z"/><path fill="#F24E1E" d="M.234 11.734c0 6.287 5.096 11.383 11.383 11.383H23V.351H11.617C5.33.351.234 5.448.234 11.734Z"/><path fill="#A259FF" d="M.234 34.5c0 6.287 5.096 11.383 11.383 11.383H23V23.117H11.617C5.33 23.117.234 28.214.234 34.5Z"/></g><defs><clipPath id="a"><path fill="#fff" d="M0 0h46v69H0z"/></clipPath></defs></svg>