<svg width="46" height="69" viewBox="0 0 46 69" fill="none" xmlns="http://www.w3.org/2000/svg">
<g clip-path="url(#clip0_67_328)">
<path d="M23 34.5001C23 28.2136 28.0963 23.1172 34.3829 23.1172C40.6694 23.1172 45.7658 28.2136 45.7658 34.5001C45.7658 40.7868 40.6694 45.883 34.3829 45.883C28.0963 45.883 23 40.7868 23 34.5001Z" fill="#1ABCFE"/>
<path d="M0.234131 57.2657C0.234131 50.9792 5.33043 45.8828 11.617 45.8828H23V57.2657C23 63.5524 17.9037 68.6487 11.617 68.6487C5.33043 68.6487 0.234131 63.5524 0.234131 57.2657Z" fill="#0ACF83"/>
<path d="M23 0.351318V23.1171H34.3829C40.6696 23.1171 45.7658 18.0208 45.7658 11.7342C45.7658 5.44763 40.6696 0.351318 34.3829 0.351318H23Z" fill="#FF7262"/>
<path d="M0.234131 11.7342C0.234131 18.0208 5.33043 23.1171 11.617 23.1171H23V0.351318H11.617C5.33043 0.351318 0.234131 5.44762 0.234131 11.7342Z" fill="#F24E1E"/>
<path d="M0.234131 34.5001C0.234131 40.7868 5.33043 45.883 11.617 45.883H23V23.1172H11.617C5.33043 23.1172 0.234131 28.2136 0.234131 34.5001Z" fill="#A259FF"/>
</g>
<defs>
<clipPath id="clip0_67_328">
<rect width="46" height="69" fill="white"/>
</clipPath>
</defs>
</svg>
