<svg xmlns="http://www.w3.org/2000/svg" width="229" height="12" fill="none"><g fill="#1e1e1e" clip-path="url(#a)"><path d="M185.54 9.42a5.131 5.131 0 0 0-.87 0c-.3 0-.71-.13-1-.16-.54-.06-1.07-.19-1.62-.23l-2.3-.16-3.52-.18-4.09-.19h-.44l-5.6-.2c-1.06-.06-3.66-.2-3.9-.19-.24.01-2.73-.2-3.13-.22-.16 0-1.23-.15-2.11-.21 0-1 .26-1.82.26-2.77 2.78.17 5.57.34 8.28.5l15.6.82c1.4 0 2.82-.31 4.18-.27a2.07 2.07 0 0 1 1 .31c.3.21.4.16.5.31.133.248.175.534.12.81-.08.91-.68 2.14-1.36 2.03m-42.79-2.28-2.93-.13h-.39c-.61 0-1.31-.06-2-.11-8-.36-15.92-.63-23.88-1-2.79-.13-5.54-.29-8.36-.33-5-.08-10-.23-15-.37-2.37-.06-3.93-.25-7.1-.21h-5.33c-2.51-.11-3.77-.16-6.29-.27-5.64-.26-11.24-.42-16.83-.6h-4.41c-2.4 0-4.47.05-6.75-.12-2.1-.16-3.92-.28-6.26-.26-3.77.05-7.51-.12-11.31-.17-3 0-5.84-.08-8.68-.12H9.94a15.72 15.72 0 0 1-1.93.11 39.181 39.181 0 0 0-4.69.11C2.63 3.68.97 3.3.77 2.83.7 2.57.84 2.24.7 1.97.5 1.35 1.54.3 2.47.3s2 .11 2.95.13c.95.02 2.06 0 3.09 0 .4 0 .81.1 1.21.16.21 0 .41.07.61.09h.81c2.28 0 4.49.14 6.94.06C21.6.7 25.35.91 29 .95c8.05.13 16.25.26 24.33.35 5.14.08 10.37.37 15.37.51 14 .41 27.92.78 41.87 1.38 3.47.14 7 .27 10.43.4 4.72.18 8.26.42 12.89.42h.81c1.37 0 2.85.07 4.32.13 2.9.18 5.53.3 8.44.38.519.873.808 1.864.84 2.88-.76 0-1.45-.05-2.29-.11-1.03-.07-2.15-.13-3.26-.15"/><path d="M181.7 8.85a8.702 8.702 0 0 0-1.16 0c-.51 0-1.48.06-2 0-2.22-.15-3.33-.23-5.55-.38-5.527-.293-11.09-.587-16.69-.88-1.47-.07-2.95-.09-4.41-.11-2.4 0-4.47 0-6.75-.27-2.09-.21-3.91-.37-6.25-.39-3.77 0-7.51-.29-11.3-.43-3.24-.11-6.29-.22-9.35-.32-2.54-.18-5.09-.31-7.7-.41a7.19 7.19 0 0 0 1.56-2.16h7.72c3.53 0 7.26.24 10.91.38 8.05.3 16.24.61 24.32.91 5.14.16 10.35.57 15.36.81l11.29.58a4.138 4.138 0 0 0 0 2.67m25.86.81a1.414 1.414 0 0 0 .28-1.48 2.766 2.766 0 0 0-1.81-1.55c-1-.14-2.13.43-3.19.43-1.48 0-2.95-.29-4.42-.41-1-.07-1.93 0-2.87-.15a15.743 15.743 0 0 0-2.57-.1 6.51 6.51 0 0 1-1.17 0 2.861 2.861 0 0 0-1.11-.22c-1 .18-1.3 2.22-.71 2.91.45.53 1.56.37 2.18.37.89 0 1.78-.06 2.66 0 2.14.13 4.28 0 6.42.11.91 0 1.79.24 2.69.35.9.11 1.71.16 2.56.21a1.279 1.279 0 0 0 1.06-.47m13.56-.01a3.426 3.426 0 0 0 0-1.06 1.292 1.292 0 0 0-.4-.74 2.17 2.17 0 0 0-2.12-.55 9.2 9.2 0 0 1-2.87 0 9.16 9.16 0 0 0-3.09 0 2.12 2.12 0 0 0-1.18.71c-.47.6-.62 1.36.13 1.81a5.19 5.19 0 0 0 2.91.45c1.34-.12 2.75.54 4.14.79a2 2 0 0 0 1.34-.21 2.53 2.53 0 0 0 1.14-1.2m7.58-.08a3.31 3.31 0 0 0-.34-.84 1.918 1.918 0 0 0-2.517-.886c-.3.137-.559.35-.753.616-.54.62-.63 2.25.14 2.72.411.225.857.377 1.32.45 1.06.11 2-.21 2.15-2.06"/></g><defs><clipPath id="a"><path fill="#fff" d="M.7.3v11.35h227.95V.3z"/></clipPath></defs></svg>