<svg width="69" height="69" viewBox="0 0 69 69" fill="none" xmlns="http://www.w3.org/2000/svg">
<g clip-path="url(#clip0_67_344)">
<mask id="mask0_67_344" style="mask-type:alpha" maskUnits="userSpaceOnUse" x="0" y="0" width="69" height="69">
<path d="M34.5 69C53.5538 69 69 53.5538 69 34.5C69 15.4462 53.5538 0 34.5 0C15.4462 0 0 15.4462 0 34.5C0 53.5538 15.4462 69 34.5 69Z" fill="black"/>
</mask>
<g mask="url(#mask0_67_344)">
<path d="M34.5 69C53.5538 69 69 53.5538 69 34.5C69 15.4462 53.5538 0 34.5 0C15.4462 0 0 15.4462 0 34.5C0 53.5538 15.4462 69 34.5 69Z" fill="#1E1E1E"/>
<path d="M57.3114 60.3826L26.5044 20.7H20.7V48.2885H25.3436V26.597L53.6663 63.1905C54.9443 62.3353 56.1618 61.3965 57.3114 60.3826Z" fill="url(#paint0_linear_67_344)"/>
<path d="M48.6833 20.7H44.0833V48.2999H48.6833V20.7Z" fill="url(#paint1_linear_67_344)"/>
</g>
</g>
<defs>
<linearGradient id="paint0_linear_67_344" x1="41.7833" y1="44.6583" x2="55.3917" y2="61.525" gradientUnits="userSpaceOnUse">
<stop stop-color="white"/>
<stop offset="1" stop-color="white" stop-opacity="0"/>
</linearGradient>
<linearGradient id="paint1_linear_67_344" x1="46.3833" y1="20.7" x2="46.3063" y2="40.9687" gradientUnits="userSpaceOnUse">
<stop stop-color="white"/>
<stop offset="1" stop-color="white" stop-opacity="0"/>
</linearGradient>
<clipPath id="clip0_67_344">
<rect width="69" height="69" fill="white"/>
</clipPath>
</defs>
</svg>
