<svg xmlns="http://www.w3.org/2000/svg" width="69" height="69" fill="none"><g clip-path="url(#a)"><mask id="b" width="69" height="69" x="0" y="0" maskUnits="userSpaceOnUse" style="mask-type:alpha"><path fill="#000" d="M34.5 69C53.554 69 69 53.554 69 34.5 69 15.446 53.554 0 34.5 0 15.446 0 0 15.446 0 34.5 0 53.554 15.446 69 34.5 69"/></mask><g mask="url(#b)"><path fill="#1E1E1E" d="M34.5 69C53.554 69 69 53.554 69 34.5 69 15.446 53.554 0 34.5 0 15.446 0 0 15.446 0 34.5 0 53.554 15.446 69 34.5 69"/><path fill="url(#c)" d="M57.311 60.383 26.504 20.7H20.7v27.589h4.644V26.597l28.322 36.594a34.618 34.618 0 0 0 3.645-2.808"/><path fill="url(#d)" d="M48.683 20.7h-4.6v27.6h4.6z"/></g></g><defs><linearGradient id="c" x1="41.783" x2="55.392" y1="44.658" y2="61.525" gradientUnits="userSpaceOnUse"><stop stop-color="#fff"/><stop offset="1" stop-color="#fff" stop-opacity="0"/></linearGradient><linearGradient id="d" x1="46.383" x2="46.306" y1="20.7" y2="40.969" gradientUnits="userSpaceOnUse"><stop stop-color="#fff"/><stop offset="1" stop-color="#fff" stop-opacity="0"/></linearGradient><clipPath id="a"><path fill="#fff" d="M0 0h69v69H0z"/></clipPath></defs></svg>