<svg xmlns="http://www.w3.org/2000/svg" width="69" height="69" fill="none"><g clip-path="url(#a)"><mask id="b" width="69" height="69" x="0" y="0" maskUnits="userSpaceOnUse" style="mask-type:luminance"><path fill="#fff" d="M69 34.5C69 15.446 53.554 0 34.5 0 15.446 0 0 15.446 0 34.5 0 53.554 15.446 69 34.5 69 53.554 69 69 53.554 69 34.5"/></mask><g mask="url(#b)"><path fill="#F03E2F" d="M69 0H0v69h69z"/><path fill="#fff" d="M21.251 17.877c0 5.929 3.727 9.457 11.188 11.317l7.906 1.8c7.061 1.594 11.361 5.552 11.361 12a12.11 12.11 0 0 1-2.633 7.766c0-6.433-3.387-9.909-11.557-11.998l-7.763-1.735c-6.216-1.393-11.014-4.647-11.014-11.65a12.05 12.05 0 0 1 2.512-7.5"/><path fill="#F9B1AB" d="M44.215 41.415c3.372 2.12 4.85 5.084 4.85 9.337-2.79 3.513-7.694 5.484-13.457 5.484-9.702 0-16.491-4.69-18-12.843h9.316c1.2 3.743 4.376 5.477 8.616 5.477 5.175 0 8.615-2.712 8.683-7.47M26.095 26.666a9.825 9.825 0 0 1-3.656-3.738 9.606 9.606 0 0 1-1.187-5.051c2.693-3.483 7.377-5.61 13.088-5.61 9.883 0 15.6 5.128 17.011 12.346H42.39c-.988-2.845-3.462-5.061-7.974-5.061-4.82 0-8.11 2.757-8.298 7.114"/></g></g><defs><clipPath id="a"><path fill="#fff" d="M0 0h69v69H0z"/></clipPath></defs></svg>