<svg xmlns="http://www.w3.org/2000/svg" width="20" height="20" fill="none"><path fill="var(--color-background)" d="M10 0a1 1 0 0 1 1 1v1a1 1 0 1 1-2 0V1a1 1 0 0 1 1-1m7.071 2.929a1 1 0 0 1 0 1.414l-.707.707a1 1 0 1 1-1.414-1.414l.707-.707a1 1 0 0 1 1.414 0m-14.142 0a1 1 0 0 1 1.414 0l.707.707A1 1 0 0 1 3.636 5.05l-.707-.707a1 1 0 0 1 0-1.414ZM10 6a4 4 0 1 0 0 8 4 4 0 0 0 0-8m-6 4a6 6 0 1 1 12 0 6 6 0 0 1-12 0m-4 0a1 1 0 0 1 1-1h1a1 1 0 1 1 0 2H1a1 1 0 0 1-1-1m17 0a1 1 0 0 1 1-1h1a1 1 0 1 1 0 2h-1a1 1 0 0 1-1-1M3.636 14.95a1 1 0 0 1 1.414 1.414l-.707.707a1 1 0 0 1-1.414-1.414l.707-.707m11.314 1.414a1 1 0 0 1 1.414-1.414l.707.707a1 1 0 0 1-1.414 1.414l-.707-.707M10 17a1 1 0 0 1 1 1v1a1 1 0 1 1-2 0v-1a1 1 0 0 1 1-1"/></svg>