<svg xmlns="http://www.w3.org/2000/svg" fill="none" viewBox="0 0 1249 286"><mask id="a" width="1215" height="177" x="10" y="66" maskUnits="userSpaceOnUse" style="mask-type:alpha"><path fill="var(--color-background)" d="m144.031 89.454 48.047 116.634 46.726-114.472c1.842-4.724 3.203-8.728 4.084-12.011.881-3.284 1.321-6.086 1.321-8.409 0-.72-.04-1.441-.12-2.162-.08-.8-.2-1.401-.36-1.802v-.48h23.783v.48c-1.602 1.762-3.364 4.565-5.285 8.409-1.842 3.843-4.004 8.608-6.487 14.294l-64.142 152.789h-9.129l-46.726-113.391-42.641 113.391h-9.01L25.236 95.82a232.428 232.428 0 0 0-4.444-9.97c-1.441-3.203-2.843-6.085-4.204-8.648-1.281-2.562-2.442-4.724-3.483-6.486-1.122-1.762-1.922-2.923-2.403-3.484v-.48h33.273v.48c-.16.881-.24 1.562-.24 2.042v1.682c0 2.723.28 5.605.84 8.648.64 3.043 1.842 6.727 3.604 11.051l45.164 114.112 43.122-114.832 7.567-.48M347.39 198.4h-30.63c-4.084 0-7.968.04-11.652.121-3.683 0-7.046.04-10.089.12h-7.087l-4.445 9.369a511.437 511.437 0 0 0-4.925 10.09c-1.361 2.802-2.482 5.285-3.363 7.447-.881 2.162-1.521 4.044-1.922 5.645-.4 1.522-.6 2.963-.6 4.325 0 .88.04 1.561.12 2.042.08.4.2.72.36.961v.48h-21.14v-.48c.56-.561 1.441-1.762 2.642-3.604 1.201-1.922 2.563-4.244 4.084-6.967 1.602-2.722 3.283-5.805 5.045-9.249a264.874 264.874 0 0 0 5.405-10.69l49.008-101.139h9.009l48.047 101.139a355.504 355.504 0 0 0 5.525 11.051 560.928 560.928 0 0 0 5.285 9.489c1.602 2.722 3.003 5.005 4.204 6.846 1.202 1.762 2.002 2.803 2.403 3.124v.48h-30.75c.16-.641.24-1.201.24-1.682v-1.801c0-1.762-.4-3.884-1.201-6.367a62.208 62.208 0 0 0-2.763-7.567 93.668 93.668 0 0 0-3.363-7.567 511.177 511.177 0 0 1-2.763-6.006zm-54.774-9.369h18.018c3.844-.08 7.687-.12 11.531-.12h11.171c3.603-.08 6.847-.12 9.729-.12l-24.864-53.092zm123.24-79.157v.48c-.16.401-.28 1.042-.36 1.922-.08.881-.12 1.642-.12 2.283 0 2.562.36 5.445 1.081 8.648.801 3.123 2.242 7.047 4.324 11.772l31.951 72.31 32.192-71.35a140.835 140.835 0 0 0 2.162-4.804 107.976 107.976 0 0 0 2.042-5.406 47.36 47.36 0 0 0 1.561-5.525c.401-1.922.601-3.804.601-5.645 0-1.041-.08-1.922-.24-2.643-.16-.801-.321-1.321-.481-1.562v-.48h22.702v.48c-1.521 1.602-3.483 4.445-5.885 8.529-2.403 4.004-4.885 9.129-7.448 15.375l-47.926 106.424h-7.688l-44.203-100.298a129.29 129.29 0 0 0-5.165-10.571c-1.762-3.443-3.443-6.486-5.045-9.128-1.521-2.723-2.883-4.965-4.084-6.727-1.201-1.842-2.042-3.043-2.522-3.604v-.48zm109.667 0h24.144c8.248-.08 15.895-.16 22.942-.24a2053.6 2053.6 0 0 0 18.138-.481c5.125-.16 8.488-.4 10.09-.72l-4.685 12.972c-2.162-.56-4.604-1.081-7.327-1.561-2.402-.401-5.325-.761-8.768-1.081-3.364-.401-7.287-.601-11.772-.601-1.601 0-3.443.08-5.525.24-2.082.08-4.084.201-6.006.361-2.242.16-4.525.32-6.847.48v47.446c6.487-.08 12.332-.24 17.537-.48 5.205-.24 9.65-.561 13.333-.961 4.325-.32 8.128-.761 11.411-1.321l-2.882 14.294a357.791 357.791 0 0 0-13.333-1.442c-3.844-.4-8.088-.72-12.733-.961-4.644-.32-9.089-.48-13.333-.48v54.533c7.447 0 14.294-.28 20.54-.841 6.246-.64 11.692-1.321 16.336-2.042 5.446-.881 10.37-1.882 14.775-3.003l-2.763 15.736c-1.201-.08-3.163-.2-5.886-.361-2.642-.08-5.445-.16-8.408-.24-2.883 0-5.605-.04-8.168-.12h-50.81v-.48c.561-1.682 1.041-3.844 1.442-6.487.48-2.642.841-5.886 1.081-9.729.32-3.924.56-8.569.721-13.934.16-5.365.24-11.651.24-18.858v-30.27c0-7.207-.08-13.453-.24-18.738-.161-5.365-.401-9.97-.721-13.814-.24-3.923-.601-7.207-1.081-9.849-.401-2.643-.881-4.805-1.442-6.487zM728.882 228.43c9.449 0 18.138-.401 26.065-1.201 7.928-.801 14.855-1.722 20.781-2.763 6.886-1.121 13.172-2.443 18.858-3.964l-3.483 19.459c-.961-.08-2.403-.16-4.325-.24-1.922-.08-4.084-.16-6.486-.241-2.322-.08-4.805-.16-7.447-.24-2.563 0-5.005-.04-7.327-.12-2.323 0-4.405-.04-6.247-.12h-55.734v-.48c.481-1.682.921-3.764 1.321-6.247.481-2.482.881-5.565 1.202-9.249.32-3.683.56-8.047.72-13.092.16-5.125.241-11.091.241-17.898v-78.196c0-6.807-.081-12.733-.241-17.777-.16-5.126-.4-9.53-.72-13.213-.321-3.764-.721-6.887-1.202-9.37-.4-2.482-.84-4.564-1.321-6.246v-.48h28.828v.48c-.48 1.682-.961 3.764-1.441 6.246-.401 2.483-.761 5.606-1.081 9.37-.24 3.683-.481 8.088-.721 13.213-.16 5.044-.24 10.97-.24 17.777zm164.801-30.03h-30.63c-4.084 0-7.968.04-11.652.121-3.683 0-7.047.04-10.089.12h-7.087l-4.445 9.369a511.437 511.437 0 0 0-4.925 10.09c-1.361 2.802-2.482 5.285-3.363 7.447-.881 2.162-1.521 4.044-1.922 5.645-.4 1.522-.6 2.963-.6 4.325 0 .88.04 1.561.12 2.042.08.4.2.72.36.961v.48h-21.14v-.48c.56-.561 1.441-1.762 2.642-3.604 1.201-1.922 2.563-4.244 4.084-6.967 1.602-2.722 3.283-5.805 5.045-9.249a264.874 264.874 0 0 0 5.405-10.69l49.008-101.139h9.009L921.55 208.01a355.504 355.504 0 0 0 5.525 11.051 560.928 560.928 0 0 0 5.285 9.489c1.602 2.722 3.003 5.005 4.204 6.846 1.202 1.762 2.002 2.803 2.403 3.124v.48h-30.75c.16-.641.24-1.201.24-1.682v-1.801c0-1.762-.4-3.884-1.201-6.367a62.208 62.208 0 0 0-2.763-7.567 93.668 93.668 0 0 0-3.363-7.567 511.177 511.177 0 0 1-2.763-6.006zm-54.774-9.369h18.018c3.844-.08 7.687-.12 11.531-.12h11.171c3.603-.08 6.847-.12 9.729-.12l-24.864-53.092zm230.141 51.651h-4.68l-95.494-93.932v42.762c0 7.207.04 13.493.12 18.858.08 5.365.2 10.01.36 13.934.241 3.843.521 7.087.841 9.729.401 2.643.881 4.805 1.442 6.487v.48h-18.018v-.48c.561-1.682 1.041-3.844 1.441-6.487.401-2.642.721-5.886.961-9.729.241-3.924.401-8.569.481-13.934.08-5.365.12-11.651.12-18.858v-30.27c0-7.207-.04-13.453-.12-18.738-.08-5.365-.24-9.97-.481-13.814-.24-3.923-.56-7.207-.961-9.849-.4-2.643-.88-4.805-1.441-6.487v-.48h7.447l95.612 94.412v-45.044c0-7.207-.04-13.453-.12-18.738-.08-5.365-.24-9.97-.48-13.814-.16-3.923-.4-7.207-.72-9.849-.32-2.643-.76-4.805-1.32-6.487v-.48h17.9v.48c-.56 1.682-1.04 3.844-1.44 6.487-.33 2.642-.61 5.926-.85 9.849-.24 3.844-.4 8.449-.48 13.814-.08 5.285-.12 11.531-.12 18.738zm59.34-122.28c-.08 6.567-.16 12.933-.24 19.099 0 2.643-.04 5.365-.12 8.168 0 2.723-.04 5.445-.12 8.168v28.828c.08 5.606.16 11.371.24 17.297.08 5.926.2 11.651.36 17.177.16 5.445.36 10.009.6 13.693.8.16 1.84.32 3.13.48a73.8 73.8 0 0 1 3.96.361c1.44.08 2.84.16 4.2.24h3.49c4.4 0 8.85-.28 13.33-.841 4.56-.56 8.93-1.601 13.09-3.123a48.844 48.844 0 0 0 11.89-6.486c3.69-2.723 6.89-6.206 9.61-10.45 2.81-4.325 4.97-9.49 6.49-15.495 1.6-6.086 2.4-13.253 2.4-21.501 0-18.178-4.36-32.192-13.09-42.041-8.65-9.85-21.58-14.775-38.8-14.775-1.68 0-3.48.04-5.4.12-1.85.08-3.69.2-5.53.361-1.84.08-3.6.2-5.28.36-1.61.16-3.01.28-4.21.36m-24.86-8.768c1.92.08 3.72.12 5.4.12 1.44.08 2.85.12 4.21.12h3c1.12 0 3.12-.04 6.01-.12 2.88-.08 6.12-.16 9.73-.24 3.68-.16 7.52-.281 11.53-.361 4.08-.16 7.84-.24 11.29-.24 9.37 0 18.3 1.081 26.78 3.243 8.49 2.162 15.94 5.726 22.35 10.691 6.48 4.884 11.61 11.331 15.37 19.339 3.76 7.927 5.65 17.737 5.65 29.428 0 12.573-2.17 23.223-6.49 31.951-4.32 8.729-10.17 15.856-17.54 21.381-7.36 5.446-15.93 9.409-25.7 11.892-9.69 2.402-19.94 3.603-30.75 3.603-2.57 0-5.77-.08-9.61-.24-3.85-.16-7.77-.32-11.77-.48-4.01-.16-7.81-.321-11.41-.481-3.53-.16-6.21-.24-8.05-.24v-.48c.56-1.682 1.04-3.844 1.44-6.487.48-2.642.84-5.886 1.08-9.729.32-3.924.56-8.569.72-13.934.16-5.365.24-11.651.24-18.858v-30.27c0-7.207-.08-13.493-.24-18.858-.16-5.365-.4-10.01-.72-13.934-.24-3.924-.6-7.207-1.08-9.849-.4-2.643-.88-4.805-1.44-6.487z"/></mask><g mask="url(#a)"><path fill="var(--color-background)" d="M0 9h1249v277H0z"/><path fill="var(--color-primary-200)" d="m0 126 14.85 6.48c14.71 6.395 44.408 19.355 74.245 29.033 29.838 9.677 59.814 16.073 89.651 20.196 29.837 4.04 59.535 5.723 89.095-3.702 29.56-9.341 59.258-29.875 88.818-32.82 29.56-2.945 59.258 11.697 89.095 11.276 29.837-.42 59.813-15.905 89.651-13.632 29.837 2.272 59.535 22.132 89.095 30.715 29.56 8.584 59.258 5.723 89.095-5.049 29.838-10.771 59.814-29.622 89.651-34.25 29.837-4.628 59.535 4.965 89.095 8.163 29.56 3.198 59.258.168 88.818 4.46 29.561 4.376 59.261 16.157 89.091 15.063 29.84-1.178 59.82-15.147 89.65-19.944 29.84-4.797 59.54-.252 74.25 1.936l14.85 2.272V280H0z"/></g></svg>