<svg xmlns="http://www.w3.org/2000/svg" width="69" height="69" fill="none"><g clip-path="url(#a)"><path fill="#3178C6" d="M69 34.5C69 15.446 53.554 0 34.5 0 15.446 0 0 15.446 0 34.5 0 53.554 15.446 69 34.5 69 53.554 69 69 53.554 69 34.5"/><path fill="#fff" fill-rule="evenodd" d="M37.86 43.317v6.746c1.082.563 2.362.984 3.84 1.265 1.478.282 3.036.422 4.674.422 1.596 0 3.112-.155 4.548-.464 1.437-.309 2.696-.818 3.779-1.528a7.75 7.75 0 0 0 2.57-2.783c.632-1.146.948-2.562.948-4.248 0-1.223-.18-2.295-.541-3.216a7.526 7.526 0 0 0-1.562-2.456 11.45 11.45 0 0 0-2.446-1.929 26.056 26.056 0 0 0-3.216-1.612 40.365 40.365 0 0 1-2.353-1.065 11.916 11.916 0 0 1-1.77-1.054c-.485-.359-.86-.738-1.123-1.139a2.417 2.417 0 0 1-.396-1.36c0-.463.118-.881.354-1.254a3.074 3.074 0 0 1 1-.96c.43-.266.957-.474 1.582-.621a9.068 9.068 0 0 1 2.081-.222 13.735 13.735 0 0 1 3.622.516c.625.177 1.232.398 1.822.665.59.267 1.134.576 1.634.928v-6.304a16.089 16.089 0 0 0-3.32-.875c-1.2-.19-2.578-.285-4.132-.285-1.582 0-3.081.173-4.497.517-1.416.344-2.661.882-3.737 1.613a8.017 8.017 0 0 0-2.55 2.793c-.624 1.132-.937 2.484-.937 4.059 0 2.01.573 3.724 1.718 5.144s2.883 2.621 5.215 3.605c.916.38 1.77.752 2.56 1.117.791.366 1.475.745 2.05 1.139.577.393 1.031.822 1.364 1.286.333.464.5.99.5 1.58 0 .437-.104.84-.312 1.213-.209.373-.524.696-.948.97-.423.274-.95.488-1.582.643-.631.155-1.37.232-2.217.232-1.443 0-2.873-.257-4.288-.77a12.76 12.76 0 0 1-3.935-2.308M26.335 26.56h8.703v-5.537H10.781v5.537h8.66v24.65h6.895V26.56" clip-rule="evenodd"/></g><defs><clipPath id="a"><path fill="#fff" d="M0 0h69v69H0z"/></clipPath></defs></svg>